<mxfile host="app.diagrams.net" modified="2024-05-06T08:29:44.671Z" agent="Mozilla/5.0 (Windows NT 10.0; Win64; x64) AppleWebKit/537.36 (KHTML, like Gecko) Chrome/110.0.0.0 Safari/537.36" version="24.3.1" etag="Ikmxq2vTGm3A-MuyT_6h" type="github">
  <diagram name="Page-1" id="HRBX52gO949-pRXBcdJt">
    <mxGraphModel>
      <root>
        <mxCell id="0" />
        <mxCell id="1" parent="0" />
      </root>
    </mxGraphModel>
  </diagram>
</mxfile>
